<svg width="54" height="54" viewBox="0 0 54 54" fill="none" xmlns="http://www.w3.org/2000/svg">
<path d="M43.0625 25.5601L12.6925 7.00004C12.4367 6.84371 12.1438 6.75835 11.8441 6.75274C11.5444 6.74712 11.2485 6.82146 10.9871 6.96811C10.7256 7.11475 10.5079 7.3284 10.3564 7.58709C10.2049 7.84577 10.125 8.14015 10.125 8.43994V45.5601C10.125 45.8599 10.2049 46.1543 10.3564 46.413C10.5079 46.6717 10.7256 46.8853 10.9871 47.032C11.2485 47.1786 11.5444 47.253 11.8441 47.2473C12.1438 47.2417 12.4367 47.1564 12.6925 47L43.0625 28.4399C43.3092 28.2892 43.513 28.0776 43.6544 27.8255C43.7958 27.5734 43.8701 27.2891 43.8701 27C43.8701 26.711 43.7958 26.4267 43.6544 26.1746C43.513 25.9225 43.3092 25.7109 43.0625 25.5601Z" fill="white" stroke="white" stroke-width="3" stroke-linecap="round" stroke-linejoin="round"/>
</svg>
