<svg width="32" height="32" viewBox="0 0 32 32" fill="none" xmlns="http://www.w3.org/2000/svg">
<path d="M30.0006 7.58267C28.912 9.14123 27.5537 10.4929 25.9899 11.5739L25.9899 11.5739C25.8909 14.3077 25.0929 16.9706 23.672 19.3083C22.2511 21.6459 20.2547 23.5804 17.8734 24.9269C15.4921 26.2735 12.8054 26.9872 10.0698 26.9999C7.33414 27.0127 4.64092 26.324 2.24719 24.9997L2.248 24.9982C5.37381 24.9549 8.41771 23.9924 11.0001 22.2307L11 22.2308C8.23565 20.3467 6.13022 17.6447 4.9789 14.5037C3.82758 11.3627 3.68811 7.94009 4.58002 4.71581L4.57997 4.71584C5.85743 6.68316 7.55188 8.3455 9.54328 9.58508C11.5347 10.8247 13.7743 11.6112 16.1035 11.8889L16.1032 11.889C15.8579 10.7197 16.0393 9.50131 16.6145 8.45421C17.1897 7.40712 18.1208 6.60054 19.2392 6.18045C20.3576 5.76035 21.5894 5.7545 22.7117 6.16395C23.8341 6.5734 24.7728 7.3711 25.3579 8.41267L25.3579 8.41323C26.9379 8.36608 28.5023 8.08621 30.0006 7.58267" stroke="white" stroke-width="2" stroke-linecap="round" stroke-linejoin="round"/>
</svg>
